<svg xmlns="http://www.w3.org/2000/svg" width="25.715" height="23" viewBox="0 0 25.715 23">
  <g id="Path_288" data-name="Path 288" transform="translate(26 21.5)" fill="none">
    <path d="M-13.143-19.5c-6,0-10.857,3.949-10.857,8.822a7.83,7.83,0,0,0,2.417,5.543,10.79,10.79,0,0,1-2.324,4.063A.337.337,0,0,0-23.97-.7a.332.332,0,0,0,.31.2A9.7,9.7,0,0,0-17.7-2.679a12.934,12.934,0,0,0,4.555.823c6,0,10.857-3.949,10.857-8.822S-7.146-19.5-13.143-19.5ZM-18.571-9.321a1.356,1.356,0,0,1-1.357-1.357,1.356,1.356,0,0,1,1.357-1.357,1.356,1.356,0,0,1,1.357,1.357A1.356,1.356,0,0,1-18.571-9.321Zm5.429,0A1.356,1.356,0,0,1-14.5-10.678a1.356,1.356,0,0,1,1.357-1.357,1.356,1.356,0,0,1,1.357,1.357A1.356,1.356,0,0,1-13.143-9.321Zm5.429,0a1.356,1.356,0,0,1-1.357-1.357,1.356,1.356,0,0,1,1.357-1.357,1.356,1.356,0,0,1,1.357,1.357A1.356,1.356,0,0,1-7.714-9.321Z" stroke="none"/>
    <path d="M -13.14259910583496 -19.49995231628418 C -19.13963890075684 -19.49995231628418 -24 -15.55144309997559 -24 -10.67832279205322 C -24 -8.574712753295898 -23.09236907958984 -6.649212837219238 -21.58252906799316 -5.135103225708008 C -22.11267852783203 -2.997583389282227 -23.88547897338867 -1.093273162841797 -23.90668869018555 -1.072072982788086 C -24 -0.9745330810546875 -24.02542877197266 -0.8303127288818359 -23.97029876708984 -0.7030830383300781 C -23.91518020629883 -0.5758438110351562 -23.79642868041992 -0.4995136260986328 -23.66070938110352 -0.4995136260986328 C -20.84881973266602 -0.4995136260986328 -18.7409496307373 -1.84819221496582 -17.69763946533203 -2.679492950439453 C -16.31076812744141 -2.157793045043945 -14.7712287902832 -1.856683731079102 -13.14259910583496 -1.856683731079102 C -7.14556884765625 -1.856683731079102 -2.285209655761719 -5.805203437805176 -2.285209655761719 -10.67832279205322 C -2.285209655761719 -15.55144309997559 -7.14556884765625 -19.49995231628418 -13.14259910583496 -19.49995231628418 M -18.57130813598633 -9.32114315032959 C -19.32199859619141 -9.32114315032959 -19.9284782409668 -9.92762279510498 -19.9284782409668 -10.67832279205322 C -19.9284782409668 -11.4290132522583 -19.32199859619141 -12.03549289703369 -18.57130813598633 -12.03549289703369 C -17.82061004638672 -12.03549289703369 -17.21413040161133 -11.4290132522583 -17.21413040161133 -10.67832279205322 C -17.21413040161133 -9.92762279510498 -17.82061004638672 -9.32114315032959 -18.57130813598633 -9.32114315032959 M -13.14259910583496 -9.32114315032959 C -13.8932991027832 -9.32114315032959 -14.49977874755859 -9.92762279510498 -14.49977874755859 -10.67832279205322 C -14.49977874755859 -11.4290132522583 -13.8932991027832 -12.03549289703369 -13.14259910583496 -12.03549289703369 C -12.3919095993042 -12.03549289703369 -11.78542900085449 -11.4290132522583 -11.78542900085449 -10.67832279205322 C -11.78542900085449 -9.92762279510498 -12.3919095993042 -9.32114315032959 -13.14259910583496 -9.32114315032959 M -7.713909149169922 -9.32114315032959 C -8.464599609375 -9.32114315032959 -9.071079254150391 -9.92762279510498 -9.071079254150391 -10.67832279205322 C -9.071079254150391 -11.4290132522583 -8.464599609375 -12.03549289703369 -7.713909149169922 -12.03549289703369 C -6.96320915222168 -12.03549289703369 -6.356729507446289 -11.4290132522583 -6.356729507446289 -10.67832279205322 C -6.356729507446289 -9.92762279510498 -6.96320915222168 -9.32114315032959 -7.713909149169922 -9.32114315032959 M -13.14259910583496 -21.49995231628418 C -9.784208297729492 -21.49995231628418 -6.609699249267578 -20.4234733581543 -4.203868865966797 -18.46881294250488 C -2.993389129638672 -17.48533248901367 -2.038009643554688 -16.33035278320312 -1.364269256591797 -15.03595352172852 C -0.6482601165771484 -13.66032314300537 -0.2852096557617188 -12.1942024230957 -0.2852096557617188 -10.67832279205322 C -0.2852096557617188 -9.162443161010742 -0.6482601165771484 -7.696323394775391 -1.364269256591797 -6.320693016052246 C -2.038009643554688 -5.026283264160156 -2.993379592895508 -3.871303558349609 -4.203859329223633 -2.887832641601562 C -6.609699249267578 -0.9331626892089844 -9.784208297729492 0.1433162689208984 -13.14259910583496 0.1433162689208984 C -14.58324432373047 0.1433162689208984 -15.99675369262695 -0.05881881713867188 -17.3583869934082 -0.4586086273193359 C -18.75325393676758 0.4588298797607422 -20.93703842163086 1.500486373901367 -23.66070938110352 1.500486373901367 C -24.59294891357422 1.500486373901367 -25.43482971191406 0.9475975036621094 -25.80550003051758 0.09191703796386719 C -26.17919158935547 -0.7704868316650391 -26.00445175170898 -1.765003204345703 -25.36074447631836 -2.445295333862305 C -25.05148315429688 -2.779888153076172 -24.32793045043945 -3.68775749206543 -23.85966110229492 -4.692675590515137 C -25.24771690368652 -6.455611228942871 -26 -8.54079532623291 -26 -10.67832279205322 C -26 -12.1942024230957 -25.63694953918457 -13.66032314300537 -24.92093849182129 -15.03595352172852 C -24.24720001220703 -16.33035278320312 -23.29181861877441 -17.48534393310547 -22.08133888244629 -18.46881294250488 C -19.67549896240234 -20.4234733581543 -16.50099945068359 -21.49995231628418 -13.14259910583496 -21.49995231628418 Z" stroke="none" fill="#4285f4"/>
  </g>
</svg>
