<svg xmlns="http://www.w3.org/2000/svg" width="27.25" height="31" viewBox="0 0 27.25 31">
  <path id="Path_279" data-name="Path 279" d="M25.745-5.022c-1.132-1.216-3.25-3.046-3.25-9.04A9.253,9.253,0,0,0,15-23.154v-1.221a1.875,1.875,0,0,0-1.874-1.875,1.875,1.875,0,0,0-1.874,1.875v1.221a9.253,9.253,0,0,0-7.5,9.091c0,5.994-2.118,7.824-3.25,9.04A1.831,1.831,0,0,0,0-3.75,1.877,1.877,0,0,0,1.881-1.875H24.369A1.876,1.876,0,0,0,26.25-3.75,1.83,1.83,0,0,0,25.745-5.022ZM3.957-4.687C5.2-6.326,6.56-9.043,6.566-14.028c0-.012,0-.022,0-.034a6.562,6.562,0,0,1,6.562-6.562,6.562,6.562,0,0,1,6.562,6.562c0,.012,0,.022,0,.034.006,4.986,1.366,7.7,2.609,9.341ZM13.125,3.75A3.749,3.749,0,0,0,16.873,0h-7.5A3.749,3.749,0,0,0,13.125,3.75Z" transform="translate(0.5 26.75)" fill="#4e4c4a" stroke="#fff" stroke-width="1"/>
</svg>
