<svg xmlns="http://www.w3.org/2000/svg" width="22.936" height="22.029" viewBox="0 0 22.936 22.029">
  <g id="Component_2_2" data-name="Component 2 – 2" transform="translate(1.019 1)">
    <path id="Path_282" data-name="Path 282" d="M10.129-16.8,7.578-11.633,1.871-10.8A1.251,1.251,0,0,0,1.18-8.668L5.309-4.645,4.332,1.039A1.249,1.249,0,0,0,6.145,2.355L11.25-.328l5.105,2.684a1.25,1.25,0,0,0,1.812-1.316l-.977-5.684L21.32-8.668a1.251,1.251,0,0,0-.691-2.133l-5.707-.832L12.371-16.8A1.251,1.251,0,0,0,10.129-16.8Z" transform="translate(-0.801 17.5)" fill="rgba(235,224,84,0)" stroke="#ebab54" stroke-width="2"/>
  </g>
</svg>
